<?xml version="1.0" encoding="UTF-8" standalone="no"?>
<svg
   xmlns:dc="http://purl.org/dc/elements/1.1/"
   xmlns:cc="http://creativecommons.org/ns#"
   xmlns:rdf="http://www.w3.org/1999/02/22-rdf-syntax-ns#"
   xmlns:svg="http://www.w3.org/2000/svg"
   xmlns="http://www.w3.org/2000/svg"
   xmlns:sodipodi="http://sodipodi.sourceforge.net/DTD/sodipodi-0.dtd"
   xmlns:inkscape="http://www.inkscape.org/namespaces/inkscape"
   inkscape:version="1.0 (4035a4fb49, 2020-05-01)"
   sodipodi:docname="Carnot_cycle_p-V_diagram.svg"
   id="svg80"
   version="1.1"
   viewBox="0 0 802.08801 619.60823"
   style="clip-rule:evenodd;fill-rule:evenodd;image-rendering:optimizeQuality;shape-rendering:geometricPrecision;text-rendering:geometricPrecision"
   height="619.60901"
   width="802.08801"
   xml:space="preserve"><metadata
   id="metadata84"><rdf:RDF><cc:Work
       rdf:about=""><dc:format>image/svg+xml</dc:format><dc:type
         rdf:resource="http://purl.org/dc/dcmitype/StillImage" /><dc:title></dc:title></cc:Work></rdf:RDF></metadata><sodipodi:namedview
   inkscape:current-layer="svg80"
   inkscape:window-maximized="1"
   inkscape:window-y="-9"
   inkscape:window-x="-9"
   inkscape:cy="438.55422"
   inkscape:cx="500"
   inkscape:zoom="0.83972969"
   showgrid="false"
   id="namedview82"
   inkscape:window-height="1001"
   inkscape:window-width="1920"
   inkscape:pageshadow="2"
   inkscape:pageopacity="0"
   guidetolerance="10"
   gridtolerance="10"
   objecttolerance="10"
   borderopacity="1"
   bordercolor="#666666"
   pagecolor="#ffffff" />
 <defs
   id="defs4">
  <style
   id="style2"
   type="text/css">
   <![CDATA[
    .str4 {stroke:#1F1A17;stroke-width:0.900001}
    .str3 {stroke:#1D76AC;stroke-width:1.66654}
    .str2 {stroke:#B04629;stroke-width:1.66654}
    .str1 {stroke:#1F1A17;stroke-width:2.08347}
    .str0 {stroke:#1F1A17;stroke-width:2.91614}
    .fil2 {fill:none}
    .fil5 {fill:#1F1A17}
    .fil0 {fill:white}
    .fil1 {fill:#1F1A17;fill-rule:nonzero}
    .fil3 {fill:#4D4948;fill-rule:nonzero}
    .fil4 {fill:#131516;fill-rule:nonzero}
   ]]>
  </style>
 </defs>
 
 
<g
   transform="translate(-78.954394,-110.3391)"
   style="clip-rule:evenodd;fill-rule:evenodd;image-rendering:optimizeQuality;shape-rendering:geometricPrecision;text-rendering:geometricPrecision"
   id="Capa_x0020_1"><metadata
     id="CorelCorpID_0Corel-Layer" /><g
     id="g11"><path
       class="fil1"
       d="m 135.978,144.956 h -21.9567 l 10.9784,-19.9583 10.9784,19.9583 z m -10.9784,532.127 -2.0752,-2.08347 v -531.774 h 4.1504 v 531.774 z m 0,0 h -2.0752 v -2.08347 z m 731.773,0 h -731.773 v -4.16693 h 731.773 z m -1.73032,-13.0618 19.9583,10.9784 -19.9583,10.9784 v -21.9567 z"
       id="path9" /></g><path
     class="fil2 str0"
     d="m 178.394,259.903 c 99.9131,186.069 281.071,307.012 638.801,346.275"
     id="path13" /><path
     class="fil2 str0"
     d="m 233.338,149.013 c 26.1732,40.7918 62.4249,82.8095 106.788,122.841 115.733,104.426 286.689,195.316 478.098,215.66"
     id="path15" /><path
     class="fil2 str0"
     d="m 351.72,282.108 c 17.0528,106.612 48.8233,168.054 99.2139,231.714"
     id="path17" /><path
     class="fil2 str0"
     d="m 559.198,415.137 c 38.4272,73.3394 72.0733,118.272 133.436,172.802"
     id="path19" /><polyline
     class="fil2 str1"
     points="469.864,358.616 477.246,372.147 461.834,372.293 "
     id="polyline21" /><polyline
     class="fil2 str1"
     points="375.689,402.958 378.005,387.72 390.361,396.935 "
     id="polyline23" /><polyline
     class="fil2 str1"
     points="612.381,488.626 613.831,503.971 599.61,498.03 "
     id="polyline25" /><polyline
     class="fil2 str1"
     points="560.776,563.999 550.35,552.648 565.272,548.79 "
     id="polyline27" /><path
     class="fil1"
     d="m 78.9544,140.165 v -29.8264 h 11.25 c 1.97953,0 3.4937,0.0969 4.53544,0.28465 1.46457,0.2433 2.6941,0.70866 3.6874,1.39606 0.986221,0.68031 1.78465,1.64528 2.38819,2.87481 0.60472,1.23543 0.90354,2.59016 0.90354,4.0689 0,2.53465 -0.80551,4.6878 -2.416536,6.44528 -1.61811,1.74921 -4.53544,2.6315 -8.75079,2.6315 h -7.65237 v 12.1252 h -3.94488 z m 3.94488,-15.6461 h 7.71497 c 2.54882,0 4.36181,-0.47244 5.43071,-1.42323 1.07008,-0.95197 1.60394,-2.28543 1.60394,-4.00748 0,-1.24961 -0.311811,-2.31969 -0.943702,-3.20788 -0.63189,-0.88937 -1.45866,-1.47284 -2.49331,-1.75748 -0.667323,-0.17362 -1.88858,-0.26339 -3.68032,-0.26339 h -7.63229 v 10.6595 z"
     id="path29" /><path
     class="fil1"
     d="m 865.314,729.948 -11.5559,-29.8264 h 4.27796 l 7.74922,21.6662 c 0.62599,1.73622 1.14685,3.36851 1.5626,4.88268 0.46536,-1.6252 1.00039,-3.2504 1.61102,-4.88268 l 8.05631,-21.6662 h 4.02756 l -11.6811,29.8264 h -4.04764 z"
     id="path31" /><path
     class="fil1"
     d="m 353.608,270.793 h -2.19567 v -14.0008 c -0.52913,0.50433 -1.22126,1.00866 -2.07992,1.51299 -0.86221,0.50433 -1.63347,0.88346 -2.31614,1.13386 v -2.12126 c 1.22835,-0.57874 2.30433,-1.27913 3.22441,-2.1 0.91654,-0.82559 1.57087,-1.62047 1.95473,-2.39646 h 1.4126 v 17.9717 z"
     id="path33" /><path
     class="fil1"
     d="m 578.932,407.841 v 2.11299 h -11.8299 c -0.0165,-0.52913 0.0673,-1.03701 0.25394,-1.5248 0.3,-0.80906 0.78307,-1.60039 1.44567,-2.38347 0.66732,-0.77953 1.6252,-1.68307 2.87599,-2.70827 1.94528,-1.59567 3.26221,-2.85827 3.94488,-3.79252 0.68386,-0.92835 1.0252,-1.81181 1.0252,-2.64095 0,-0.87047 -0.31181,-1.60394 -0.93308,-2.20394 -0.6248,-0.59646 -1.4374,-0.89646 -2.4378,-0.89646 -1.05827,0 -1.90394,0.31654 -2.53701,0.95433 -0.63779,0.63307 -0.95905,1.51299 -0.96732,2.63386 l -2.25827,-0.22913 c 0.15473,-1.6878 0.73819,-2.97166 1.74567,-3.85512 1.00866,-0.88346 2.36693,-1.3252 4.06772,-1.3252 1.71614,0 3.07441,0.47953 4.07481,1.43032 1.00394,0.95315 1.50354,2.13307 1.50354,3.54095 0,0.71693 -0.14528,1.42087 -0.44173,2.11299 -0.29055,0.69095 -0.77835,1.42087 -1.45748,2.18268 -0.67914,0.76654 -1.80827,1.81654 -3.3874,3.15 -1.31693,1.10906 -2.1626,1.85906 -2.53819,2.25473 -0.37441,0.39213 -0.68268,0.7878 -0.92953,1.18701 h 8.78032 z"
     id="path35" /><path
     class="fil1"
     d="m 688.361,610.547 2.19567,-0.29173 c 0.25394,1.24606 0.68386,2.14252 1.2874,2.69173 0.60827,0.55039 1.34646,0.82559 2.21693,0.82559 1.03347,0 1.90866,-0.35788 2.62087,-1.0748 0.70866,-0.71693 1.06654,-1.60394 1.06654,-2.66221 0,-1.00866 -0.32835,-1.84252 -0.9874,-2.49685 -0.6626,-0.65433 -1.5,-0.98268 -2.51693,-0.98268 -0.41575,0 -0.93307,0.0827 -1.54961,0.24567 l 0.24567,-1.92874 c 0.14645,0.0165 0.2622,0.0248 0.35433,0.0248 0.93307,0 1.7752,-0.24567 2.5252,-0.73346 0.75,-0.4878 1.12441,-1.24134 1.12441,-2.25827 0,-0.80433 -0.27402,-1.4752 -0.82087,-2.00079 -0.54567,-0.52914 -1.24961,-0.79489 -2.11181,-0.79489 -0.85394,0 -1.56732,0.27048 -2.13307,0.80315 -0.57165,0.53741 -0.93779,1.34646 -1.10079,2.42126 l -2.19567,-0.39212 c 0.26693,-1.47402 0.87874,-2.61614 1.82953,-3.42402 0.95433,-0.80906 2.13662,-1.21772 3.55394,-1.21772 0.97441,0 1.87441,0.2126 2.69528,0.62953 0.82087,0.42047 1.45039,0.99212 1.88858,1.71732 0.43229,0.72401 0.65315,1.49173 0.65315,2.30788 0,0.77126 -0.20787,1.4752 -0.6248,2.11299 -0.41693,0.63307 -1.02874,1.1374 -1.84134,1.51181 1.05827,0.24212 1.87914,0.75 2.46614,1.52126 0.58346,0.76653 0.8752,1.72914 0.8752,2.88307 0,1.5626 -0.56693,2.8878 -1.70788,3.97559 -1.1374,1.08662 -2.57953,1.62874 -4.32048,1.62874 -1.57087,0 -2.87599,-0.46654 -3.913,-1.40433 -1.03819,-0.93308 -1.62992,-2.14606 -1.7752,-3.6378 z"
     id="path37" /><path
     class="fil1"
     d="m 438.538,538.016 v -4.28386 h -7.76221 V 531.716 l 8.16733,-11.5961 h 1.79528 v 11.5961 h 2.41654 v 2.01614 h -2.41654 v 4.28386 z m 0,-6.3 v -8.06694 l -5.59961,8.06694 z"
     id="path39" /><path
     class="fil2 str2"
     d="m 487.851,411.066 -2.25827,-9.36261 m 26.817,-49.4563 c -5.36221,4.78229 -5.21693,6.2693 -5.12008,12.2539 0.098,6.05315 -0.0378,6.71693 -4.49055,10.8036 -5.34804,4.90867 -5.78032,5.96811 -5.22402,12.5728 0.52323,6.2126 0.18307,7.40316 -5.01851,12.0732 -4.82126,4.32874 -2.9941,7.20473 -4.70552,11.1154 l 7.96772,-6.32835"
     id="path41" /><path
     class="fil2 str3"
     d="m 488.407,574.172 -2.25827,-9.36261 m 26.817,-49.4563 c -5.36221,4.78229 -5.21693,6.2693 -5.12008,12.2539 0.098,6.05315 -0.0378,6.71693 -4.49055,10.8036 -5.34804,4.90867 -5.78032,5.96811 -5.22402,12.5728 0.52323,6.2126 0.18307,7.40316 -5.01851,12.0732 -4.82126,4.32874 -2.9941,7.20473 -4.70552,11.1154 l 7.96772,-6.32835"
     id="path43" /><path
     class="fil3"
     d="m 507.993,344.52 c 1.09606,0.75827 2.11299,1.30866 3.0378,1.65827 l -0.69567,1.65 c -1.28268,-0.46181 -2.56654,-1.19528 -3.84567,-2.19567 -1.3252,0.73819 -2.7874,1.10906 -4.39134,1.10906 -1.62165,0 -3.08859,-0.39213 -4.40906,-1.17165 -1.31693,-0.78307 -2.33268,-1.87914 -3.04607,-3.29528 -0.7122,-1.41732 -1.06654,-3.01299 -1.06654,-4.78347 0,-1.76693 0.35906,-3.37559 1.0748,-4.82481 0.71693,-1.44685 1.73386,-2.55118 3.05906,-3.30945 1.32047,-0.75354 2.79921,-1.13268 4.43268,-1.13268 1.65473,0 3.14173,0.39094 4.47166,1.17874 1.3252,0.78307 2.3374,1.88386 3.03307,3.29646 0.69567,1.4126 1.04173,3.00355 1.04173,4.77874 0,1.47047 -0.22087,2.79567 -0.67087,3.97087 -0.44527,1.1752 -1.12087,2.2004 -2.02559,3.07087 z m -5.21221,-3.02953 c 1.36654,0.38386 2.49213,0.95433 3.37914,1.7126 1.39252,-1.27087 2.08819,-3.17835 2.08819,-5.72481 0,-1.45039 -0.24567,-2.71654 -0.73819,-3.79961 -0.49134,-1.07953 -1.21181,-1.92166 -2.15788,-2.52166 -0.95079,-0.59528 -2.0126,-0.89528 -3.19607,-0.89528 -1.76221,0 -3.22914,0.60355 -4.39134,1.81299 -1.16693,1.20827 -1.74685,3.01181 -1.74685,5.41654 0,2.32441 0.5752,4.1126 1.72559,5.35867 1.15394,1.24134 2.62559,1.86614 4.4126,1.86614 0.85039,0 1.64528,-0.15826 2.39528,-0.4748 -0.74055,-0.48307 -1.5248,-0.82559 -2.34567,-1.0252 l 0.5752,-1.72559 z"
     id="path45" /><path
     class="fil3"
     d="m 516.605,351.433 h -1.09961 v -7.0004 c -0.2622,0.25039 -0.61299,0.50433 -1.04173,0.75472 -0.42992,0.25394 -0.8126,0.44174 -1.15394,0.57048 v -1.06299 c 0.61181,-0.29174 1.14921,-0.64134 1.60748,-1.05 0.46299,-0.41221 0.7878,-0.80788 0.97914,-1.19528 h 0.70866 z"
     id="path47" /><path
     class="fil3"
     d="m 499.409,593.233 c 1.09606,0.75827 2.11299,1.30866 3.0378,1.65827 l -0.69567,1.65 c -1.28268,-0.46181 -2.56654,-1.19528 -3.84567,-2.19567 -1.3252,0.73819 -2.7874,1.10906 -4.39134,1.10906 -1.62165,0 -3.08859,-0.39213 -4.40906,-1.17165 -1.31693,-0.78307 -2.33268,-1.87914 -3.04607,-3.29528 -0.71221,-1.41732 -1.06654,-3.01299 -1.06654,-4.78347 0,-1.76693 0.35906,-3.37559 1.0748,-4.82481 0.71693,-1.44685 1.73386,-2.55118 3.05906,-3.30945 1.32047,-0.75354 2.79921,-1.13268 4.43268,-1.13268 1.65473,0 3.14173,0.39094 4.47166,1.17874 1.3252,0.78307 2.3374,1.88386 3.03307,3.29646 0.69567,1.4126 1.04173,3.00355 1.04173,4.77874 0,1.47047 -0.22087,2.79567 -0.67087,3.97087 -0.44527,1.1752 -1.12087,2.2004 -2.02559,3.07087 z m -5.21221,-3.02953 c 1.36654,0.38386 2.49213,0.95433 3.37914,1.7126 1.39252,-1.27087 2.08819,-3.17835 2.08819,-5.72481 0,-1.45039 -0.24567,-2.71654 -0.73819,-3.79961 -0.49134,-1.07953 -1.21181,-1.92166 -2.15788,-2.52166 -0.95079,-0.59528 -2.0126,-0.89528 -3.19607,-0.89528 -1.76221,0 -3.22914,0.60355 -4.39134,1.81299 -1.16693,1.20827 -1.74685,3.01181 -1.74685,5.41654 0,2.32441 0.5752,4.1126 1.72559,5.35867 1.15394,1.24134 2.62559,1.86614 4.4126,1.86614 0.85039,0 1.64528,-0.15826 2.39528,-0.4748 -0.74055,-0.48307 -1.5248,-0.82559 -2.34567,-1.0252 l 0.5752,-1.72559 z"
     id="path49" /><path
     class="fil3"
     d="m 509.656,599.091 v 1.05473 h -5.9126 c -0.008,-0.26221 0.0331,-0.52087 0.12874,-0.76299 0.15,-0.40394 0.39213,-0.79961 0.72165,-1.19173 0.33308,-0.39095 0.8126,-0.84095 1.4374,-1.35354 0.97441,-0.79607 1.62874,-1.42913 1.97008,-1.89567 0.34252,-0.46772 0.5126,-0.90473 0.5126,-1.32165 0,-0.43347 -0.15354,-0.80433 -0.46653,-1.09961 -0.30827,-0.3 -0.71693,-0.45 -1.21654,-0.45 -0.52914,0 -0.94961,0.15826 -1.27087,0.4748 -0.31654,0.31654 -0.47481,0.75827 -0.47953,1.32047 l -1.12913,-0.11575 c 0.0756,-0.84212 0.36732,-1.48347 0.87165,-1.9252 0.50433,-0.44173 1.18347,-0.6626 2.03268,-0.6626 0.85866,0 1.5378,0.23741 2.0374,0.71221 0.50079,0.4748 0.75,1.06654 0.75,1.77047 0,0.35905 -0.0709,0.70866 -0.21614,1.05473 -0.15,0.34606 -0.39212,0.7122 -0.72874,1.09606 -0.34252,0.37913 -0.90472,0.90354 -1.69606,1.57087 -0.65906,0.55394 -1.08307,0.92953 -1.27087,1.12913 -0.18779,0.19606 -0.34134,0.39567 -0.46299,0.59527 z"
     id="path51" /><polygon
     class="fil1"
     points="835.036,481.724 829.14,481.724 829.14,479.611 843.324,479.611 843.324,481.724 837.403,481.724 837.403,497.507 835.036,497.507 "
     id="polygon53" /><path
     class="fil1"
     d="m 848.483,502.503 h -1.09961 v -7.0004 c -0.26221,0.25039 -0.61299,0.50433 -1.04173,0.75472 -0.42992,0.25394 -0.8126,0.44174 -1.15394,0.57048 v -1.06299 c 0.61181,-0.29174 1.14921,-0.64134 1.60748,-1.05 0.46299,-0.41221 0.7878,-0.80788 0.97913,-1.19528 h 0.70867 z"
     id="path55" /><polygon
     class="fil1"
     points="835.357,602.754 829.46,602.754 829.46,600.641 843.644,600.641 843.644,602.754 837.723,602.754 837.723,618.537 835.357,618.537 "
     id="polygon57" /><path
     class="fil1"
     d="m 850.437,622.478 v 1.05473 h -5.9126 c -0.008,-0.26221 0.0331,-0.52087 0.12874,-0.76299 0.15,-0.40394 0.39213,-0.79961 0.72165,-1.19173 0.33307,-0.39095 0.8126,-0.84095 1.4374,-1.35354 0.97441,-0.79607 1.62874,-1.42913 1.97008,-1.89567 0.34252,-0.46772 0.5126,-0.90473 0.5126,-1.32165 0,-0.43347 -0.15354,-0.80433 -0.46653,-1.09961 -0.30827,-0.3 -0.71693,-0.45 -1.21654,-0.45 -0.52914,0 -0.94961,0.15826 -1.27087,0.4748 -0.31654,0.31654 -0.47481,0.75827 -0.47953,1.32047 l -1.12913,-0.11575 c 0.0756,-0.84212 0.36732,-1.48347 0.87165,-1.9252 0.50433,-0.44173 1.18347,-0.6626 2.03268,-0.6626 0.85867,0 1.5378,0.23741 2.0374,0.71221 0.50079,0.4748 0.75,1.06654 0.75,1.77047 0,0.35905 -0.0709,0.70866 -0.21614,1.05473 -0.15,0.34606 -0.39212,0.7122 -0.72874,1.09606 -0.34252,0.37913 -0.90472,0.90354 -1.69606,1.57087 -0.65905,0.55394 -1.08307,0.92953 -1.27087,1.12913 -0.18779,0.19606 -0.34134,0.39567 -0.46299,0.59527 z"
     id="path59" /><polygon
     class="fil1"
     points="765.738,373.016 758.859,373.016 758.859,370.551 775.406,370.551 775.406,373.016 768.499,373.016 768.499,391.429 765.738,391.429 "
     id="polygon61" /><path
     class="fil1"
     d="m 781.424,397.258 h -1.28268 v -8.16733 c -0.30709,0.29173 -0.71457,0.58819 -1.21536,0.87992 -0.50079,0.29646 -0.94843,0.51614 -1.34646,0.66614 v -1.23898 c 0.71457,-0.34015 1.34173,-0.74882 1.87559,-1.2248 0.53976,-0.48189 0.9189,-0.9437 1.14331,-1.39606 h 0.82559 v 10.4811 z"
     id="path63" /><polygon
     class="fil4"
     points="793.796,385.66 804.748,381.12 793.796,376.618 793.796,374.071 807.625,379.909 807.625,382.301 793.796,388.211 "
     id="polygon65" /><polygon
     class="fil4"
     points="824.377,373.016 817.498,373.016 817.498,370.551 834.046,370.551 834.046,373.016 827.138,373.016 827.138,391.429 824.377,391.429 "
     id="polygon67" /><path
     class="fil4"
     d="m 841.97,396.027 v 1.23071 h -6.89764 c -0.0106,-0.30709 0.0378,-0.60827 0.15,-0.88937 0.1748,-0.47244 0.45709,-0.93425 0.84095,-1.39134 0.38858,-0.45591 0.94842,-0.9815 1.67717,-1.57914 1.1374,-0.92835 1.9004,-1.66772 2.29961,-2.21221 0.39803,-0.54449 0.59763,-1.05473 0.59763,-1.54016 0,-0.50551 -0.17952,-0.93898 -0.54448,-1.28386 -0.36024,-0.34961 -0.83623,-0.52441 -1.41969,-0.52441 -0.61654,0 -1.10787,0.18425 -1.48228,0.55394 -0.36969,0.3685 -0.55394,0.88464 -0.55867,1.54016 l -1.31811,-0.13583 c 0.0874,-0.9815 0.42756,-1.73032 1.01575,-2.24528 0.58819,-0.51614 1.38071,-0.77362 2.37284,-0.77362 1.00158,0 1.7941,0.27755 2.37638,0.83149 0.58347,0.55394 0.8752,1.24488 0.8752,2.06575 0,0.41811 -0.0827,0.82677 -0.25275,1.23071 -0.17481,0.40276 -0.45709,0.83032 -0.8504,1.27795 -0.39803,0.44174 -1.05473,1.05473 -1.97835,1.83307 -0.76772,0.64607 -1.26378,1.08307 -1.48228,1.31693 -0.21968,0.22796 -0.39921,0.46181 -0.53976,0.69449 h 5.1189 z"
     id="path69" /><circle
     class="fil5 str4"
     cx="351.72"
     cy="282.108"
     r="3.7559099"
     id="circle71" /><circle
     class="fil5 str4"
     cx="450.93301"
     cy="513.82098"
     r="3.7559099"
     id="circle73" /><circle
     class="fil5 str4"
     cx="559.198"
     cy="415.13699"
     r="3.7559099"
     id="circle75" /><circle
     class="fil5 str4"
     cx="692.63397"
     cy="587.93903"
     r="3.7559099"
     id="circle77" /></g></svg>
